<svg width="28" height="28" viewBox="0 0 28 28" fill="none" xmlns="http://www.w3.org/2000/svg">
<path d="M13.9327 27.8655C10.0435 27.8655 6.74875 26.5166 4.04845 23.819C1.34948 21.12 0 17.8266 0 13.9387C0 10.0508 1.34948 6.75605 4.04845 4.05443C6.74875 1.35148 10.0435 0 13.9327 0C16.2986 0 18.5133 0.561954 20.5767 1.68586C22.6414 2.80977 24.3053 4.37886 25.5686 6.39314V0H27.559V10.4097H17.1492V8.41935H24.5137C23.4773 6.4356 22.019 4.86783 20.1388 3.71606C18.2612 2.56561 16.1925 1.99039 13.9327 1.99039C10.6154 1.99039 7.7957 3.15145 5.47357 5.47357C3.15145 7.7957 1.99039 10.6154 1.99039 13.9327C1.99039 17.2501 3.15145 20.0698 5.47357 22.3919C7.7957 24.714 10.6154 25.8751 13.9327 25.8751C16.4871 25.8751 18.7926 25.1453 20.8493 23.6856C22.9061 22.226 24.3491 20.302 25.1784 17.9135H27.2902C26.4132 20.8938 24.7459 23.2975 22.2884 25.1247C19.8309 26.9519 17.0457 27.8655 13.9327 27.8655Z" fill="#232323"/>
</svg>
